<svg width="118" height="12" viewBox="0 0 118 12" fill="none" xmlns="http://www.w3.org/2000/svg">
<path d="M93.1227 7.39524V1.60956H90.3344V0.285378H97.5042V1.60994H94.7158V7.39562L93.1227 7.39524Z" fill="#36322C"/>
<path d="M105.367 7.39562L103.744 2.33666L102.11 7.39562H100.437L98.0671 0.285378H99.8099L101.353 5.53323L103.016 0.325003H104.55L106.223 5.54324L107.766 0.285378H109.449L107.089 7.39562H105.367Z" fill="#36322C"/>
<path d="M118 3.84056C118 4.59075 117.836 5.2463 117.507 5.80721C117.179 6.36812 116.704 6.80284 116.083 7.11177C115.462 7.42031 114.724 7.57496 113.867 7.57496C113.044 7.57496 112.325 7.42723 111.711 7.13177C111.097 6.83631 110.619 6.40813 110.278 5.84722C109.936 5.28631 109.765 4.61729 109.765 3.84056C109.765 3.09037 109.929 2.43482 110.258 1.87391C110.587 1.313 111.061 0.877895 111.682 0.569356C112.303 0.260817 113.041 0.106163 113.898 0.106163C114.721 0.106163 115.44 0.253892 116.054 0.549351C116.668 0.84481 117.145 1.27299 117.487 1.8339C117.829 2.39481 118 3.06344 118 3.84056ZM116.348 3.84056C116.348 3.07037 116.132 2.47291 115.7 2.04819C115.268 1.62347 114.661 1.41072 113.878 1.41072C113.101 1.41072 112.497 1.62462 112.065 2.05319C111.634 2.48137 111.418 3.07729 111.418 3.84056C111.418 4.61075 111.634 5.20821 112.065 5.63293C112.497 6.05766 113.104 6.27002 113.888 6.27002C114.664 6.27002 115.268 6.05612 115.7 5.62755C116.131 5.19975 116.348 4.60383 116.348 3.84056Z" fill="#36322C"/>
<path d="M51.6365 3.84925C51.6365 3.84733 51.6361 3.84656 51.6361 3.84463C51.6361 3.84079 51.6365 3.83694 51.6365 3.83309C51.6365 1.46865 50.0514 0.286049 46.881 0.286049H41.2981V11.6424H43.7476V7.39629H46.8807C46.8857 7.39629 46.8899 7.39591 46.8945 7.39591H47.0715L47.0969 7.39091C49.9733 7.33936 51.4822 6.26793 51.6222 4.17549C51.6295 4.08085 51.6338 3.9839 51.6349 3.88503C51.6349 3.87272 51.6365 3.86156 51.6365 3.84925ZM43.7476 2.24269H46.7218C47.5808 2.24269 48.1983 2.36465 48.5749 2.60855C48.9512 2.85246 49.1393 3.25564 49.1393 3.81732C49.1393 4.37977 48.9404 4.79026 48.543 5.04994C48.1452 5.31 47.5277 5.43965 46.6902 5.43965H43.7479L43.7476 2.24269Z" fill="#36322C"/>
<path d="M8.58869 9.32042C8.04817 9.6705 7.30568 9.84516 6.36198 9.84516C5.19553 9.84516 4.28377 9.50315 3.62629 8.81952C2.96882 8.1355 2.64028 7.18411 2.64028 5.96457C2.64028 4.75581 2.96882 3.80672 3.62629 3.11771C4.28377 2.42869 5.17938 2.08398 6.31428 2.08398C7.18373 2.08398 7.87044 2.24826 8.37402 2.5768C8.87761 2.90573 9.26194 3.44625 9.52701 4.19913L12.0561 3.89675C11.3775 1.29917 9.46353 0 6.31428 0C5.02049 0 3.89675 0.251986 2.94228 0.755574C1.98819 1.25916 1.25878 1.95895 0.755574 2.85495C0.251602 3.75133 0 4.78735 0 5.96457C0 7.20527 0.259681 8.27631 0.779426 9.1773C1.29879 10.0787 2.0359 10.7627 2.99037 11.229C3.94445 11.6956 5.05819 11.9288 6.33043 11.9288C8.02701 11.9288 9.39236 11.5629 10.4261 10.8312C11.4598 10.0995 12.0669 9.06035 12.2473 7.71386H9.6705C9.48969 8.43519 9.1296 8.97071 8.58869 9.32042Z" fill="#36322C"/>
<path d="M22.8012 4.676H16.5981V0.286049H14.0532V11.6424H16.5981V6.88694H22.8012V11.6424H25.3461V0.286049H22.8012V4.676Z" fill="#36322C"/>
<path d="M31.8834 0.286049L26.6821 11.6424H29.3066L30.42 9.06556H36.146L37.2752 11.6424H39.9632L34.7622 0.286049H31.8834ZM31.2787 7.04582L33.2826 2.49699L35.2866 7.04582H31.2787Z" fill="#36322C"/>
<path d="M52.4866 2.40158H56.94V11.6424H59.4849V2.40158H63.9383V0.286049H52.4866V2.40158Z" fill="#36322C"/>
<path d="M85.311 7.00076C86.6228 6.51333 87.3261 5.57156 87.4196 4.17544C87.4269 4.0808 87.4311 3.98385 87.4323 3.88498C87.4323 3.87267 87.4338 3.86151 87.4338 3.84959C87.4338 3.84766 87.4334 3.84689 87.4334 3.84497C87.4334 3.84112 87.4338 3.83728 87.4338 3.83343C87.4338 1.46899 85.8488 0.286385 82.6784 0.286385H77.0958V11.6427H79.5453V7.39625H82.6784C82.683 7.39625 82.6872 7.39586 82.6918 7.39586H82.8692L85.3502 11.6423H88.1336L85.311 7.00076ZM79.5449 2.24264H82.5191C83.3782 2.24264 83.9956 2.3646 84.3723 2.60851C84.7485 2.85241 84.9366 3.25559 84.9366 3.81727C84.9366 4.37972 84.7377 4.79021 84.3403 5.04989C83.9425 5.30995 83.3251 5.4396 82.4876 5.4396H79.5453V2.24264H79.5449Z" fill="#36322C"/>
<path d="M74.7823 11.6424V9.55914H67.8198V6.83923H74.4522V4.75563H67.8198V2.36965H74.7861V0.286049H65.2749V11.6424H74.7823Z" fill="#36322C"/>
</svg>
